<?xml version="1.0" encoding="UTF-8"?>
<svg width="275px" height="51px" viewBox="0 0 275 51" version="1.1" xmlns="http://www.w3.org/2000/svg" xmlns:xlink="http://www.w3.org/1999/xlink">
    <!-- Generator: Sketch 55.2 (78181) - https://sketchapp.com -->
    <title>apaxy v2</title>
    <desc>Created with Sketch.</desc>
    <g id="Page-1" stroke="none" stroke-width="1" fill="none" fill-rule="evenodd">
        <g id="Logo2" transform="translate(-119.000000, -407.000000)">
            <g id="apaxy-v2" transform="translate(119.000000, 407.000000)">
                <path d="M16.9464386,10.5187771 L13.0414425,30.6560213 L20.8795284,30.6560213 L16.9464386,10.5187771 Z M11.889609,1.62015869 L22.0313618,1.62015869 L33.3530415,50.8262233 L25.0654596,50.8262233 L22.4808577,38.6647779 L11.3839261,38.6647779 L8.85551124,50.8262233 L0.567929342,50.8262233 L11.889609,1.62015869 Z M47.1188554,9.79370451 L47.1188554,24.2292412 L50.5181688,24.2292412 C53.233887,24.2292412 55.1395438,23.6909351 56.2351956,22.6143067 C57.3308476,21.5376785 57.8786651,19.6700858 57.8786651,17.0114729 C57.8786651,14.3528599 57.3308476,12.4852674 56.2351956,11.408639 C55.1395438,10.3320106 53.233887,9.79370451 50.5181688,9.79370451 L47.1188554,9.79370451 Z M38.8312736,1.62015869 L50.2091403,1.62015869 C55.9964298,1.62015869 60.1589081,2.82860103 62.6967001,5.24552163 C65.2344921,7.66244245 66.503369,11.584387 66.503369,17.0114729 C66.503369,22.4385587 65.2344921,26.3605033 62.6967001,28.7774241 C60.1589081,31.1943449 55.9964298,32.402787 50.2091403,32.402787 L47.1188554,32.402787 L47.1188554,50.8262233 L38.8312736,50.8262233 L38.8312736,1.62015869 Z M86.2250048,10.5187771 L82.3200083,30.6560213 L90.1580943,30.6560213 L86.2250048,10.5187771 Z M81.168175,1.62015869 L91.3099279,1.62015869 L102.631607,50.8262233 L94.3440257,50.8262233 L91.7594238,38.6647779 L80.662492,38.6647779 L78.1340772,50.8262233 L69.8464953,50.8262233 L81.168175,1.62015869 Z M137.439451,50.8262233 L128.870935,50.8262233 L120.864288,34.5450471 L112.885734,50.8262233 L104.317217,50.8262233 L116.622169,25.8441757 L104.654339,1.62015869 L113.222856,1.62015869 L120.864288,17.2751358 L128.533813,1.62015869 L137.10233,1.62015869 L125.190686,25.8441757 L137.439451,50.8262233 Z M224.782136,42.7185929 L232.170726,1.62015869 L240.514495,1.62015869 L230.541303,50.8262233 L219.051063,50.8262233 L209.077871,1.62015869 L217.42164,1.62015869 L224.782136,42.7185929 Z M274.815641,50.8262233 L245.346576,50.8262233 L245.346576,42.520846 L249.841537,36.9180122 C255.179327,30.2604939 258.419412,26.1627758 259.561886,24.6247353 C260.966569,22.7351428 261.977924,21.0598023 262.595984,19.5986638 C263.214045,18.1375254 263.52307,16.6928876 263.52307,15.2647071 C263.52307,13.0675063 262.956523,11.3701941 261.823414,10.1727197 C260.690304,8.97524542 259.084307,8.37651717 257.00538,8.37651717 C255.525781,8.37651717 253.863599,8.72257102 252.018784,9.41468936 C250.173968,10.1068075 248.249583,11.1120117 246.24557,12.4303322 L246.24557,3.36692443 C248.249583,2.51001622 250.211425,1.85635876 252.131157,1.40593274 C254.050889,0.955506509 255.890996,0.730296717 257.65153,0.730296717 C262.090324,0.730296717 265.578565,1.94423198 268.116357,4.37213887 C270.654149,6.80004553 271.923027,10.112276 271.923027,14.3089294 C271.923027,16.242466 271.646776,18.0551295 271.094269,19.746974 C270.541761,21.4388188 269.591272,23.3173971 268.242778,25.3827659 C267.250136,26.8768623 264.525094,30.2385291 260.067571,35.4678668 C257.651517,38.3022557 255.731814,40.5653386 254.308404,42.2571833 L271.094269,42.2571833 L274.815641,50.8262233 Z" id="APAXY-V2" fill="#FFFFFF"></path>
                <polygon id="Path" fill="#C31148" points="138.422724 1.62015869 147.356456 1.62015869 155.503571 21.3948665 163.678779 1.62015869 172.612511 1.62015869 159.661408 31.4470096 159.661408 50.8262233 151.373827 50.8262233 151.373827 31.4470096"></polygon>
            </g>
        </g>
    </g>
</svg>