<?xml version="1.0" encoding="UTF-8"?>
<svg width="238px" height="318px" viewBox="0 0 238 318" version="1.1" xmlns="http://www.w3.org/2000/svg" xmlns:xlink="http://www.w3.org/1999/xlink">
    <!-- Generator: Sketch 55.2 (78181) - https://sketchapp.com -->
    <title>logo</title>
    <desc>Created with Sketch.</desc>
    <defs>
        <radialGradient cx="50%" cy="33.8289222%" fx="50%" fy="33.8289222%" r="195.266899%" gradientTransform="translate(0.500000,0.338289),scale(1.000000,0.338875),rotate(90.000000),scale(1.000000,0.172778),translate(-0.500000,-0.338289)" id="radialGradient-1">
            <stop stop-color="#E02074" offset="0%"></stop>
            <stop stop-color="#D41A62" offset="36.3494975%"></stop>
            <stop stop-color="#BD0E40" offset="100%"></stop>
        </radialGradient>
    </defs>
    <g id="Page-1" stroke="none" stroke-width="1" fill="none" fill-rule="evenodd">
        <g id="Logo2" transform="translate(-130.000000, -46.000000)">
            <g id="logo" transform="translate(106.000000, 25.000000)">
                <g id="Group-2" transform="translate(150.171691, 190.928045) rotate(-327.000000) translate(-150.171691, -190.928045) translate(96.671691, -1.571955)">
                    <path d="M45.8556271,311.085215 C45.8556271,311.085215 49.4363841,316.413699 52.2073783,317.358928 C54.9783725,318.304157 60.9879446,318.304157 60.9879446,318.304157 L38.9968997,327.930599 L45.8556271,311.085215 Z M39.1464753,310.85711 C39.1464753,310.85711 35.0074398,315.74988 32.0151108,317.12059 C29.6736169,318.193169 23.1450064,318.186977 23.1450064,318.186977 L33.3688215,322.509141 L39.3985404,325.058233 L39.1464753,310.85711 Z" id="Triangle" fill="#A8BBCE"></path>
                    <g id="Group" transform="translate(-0.000000, -0.000000)">
                        <path d="M38.8857246,0.114903352 C38.8857246,0.114903352 87.1937395,4.63959371 102.229336,85.2674946 C117.264932,165.895396 91.4261615,312.457645 42.0459365,312.457645 C-5.7520378,312.457645 0.971063022,95.3627042 0.971063022,95.3627042 C0.971063022,95.3627042 15.3908064,89.8581586 28.2116967,62.8269767 C41.0325869,35.7957948 38.8857246,0.114903352 38.8857246,0.114903352 Z" id="Triangle-2" fill="url(#radialGradient-1)"></path>
                        <path d="M53.3736061,119.812875 L93.249287,51.4015267 C93.249287,51.4015267 99.2365738,71.5249807 99.3412048,71.9276557 C100.567456,76.6469173 102.229336,85.9614785 102.229336,85.9614785 L56.2939075,123.02327 L53.3736061,119.812875 Z" id="Triangle-2-Copy" fill="#F5A623"></path>
                        <path d="M56.2445364,126.605426 L103.195355,90.6996051 C103.195355,90.6996051 104.758892,102.55049 105.291391,108.493799 C105.790402,114.063346 106.289883,125.238171 106.289883,125.238171 L56.2445364,130.815654 L56.2445364,126.605426 Z" id="Triangle-2-Copy" fill="#F5A623"></path>
                    </g>
                    <path d="M48.8138566,28.9455517 C50.2050022,28.9455517 63.6731345,144.622935 62.1215718,175.702837 C58.7986636,242.265187 38.1401153,376.517382 38.1401153,376.517382 L27.8782966,384.792993 C27.8782966,384.792993 48.4054127,243.126061 52.306951,175.702837 C54.2152435,142.725272 46.9072816,28.9455517 48.8138566,28.9455517 Z" id="Rectangle" fill="#211E1E"></path>
                </g>
            </g>
        </g>
    </g>
</svg>