<svg xmlns="http://www.w3.org/2000/svg" width="71" height="93" viewBox="0 0 71 93">
  <g fill="none" fill-rule="evenodd">
    <path fill="#1D2F44" d="M3,0 L55.7339131,0 L71,18.640625 L71,90 C71,91.6568542 69.6568542,93 68,93 L3,93 C1.34314575,93 2.02906125e-16,91.6568542 0,90 L0,3 C-2.02906125e-16,1.34314575 1.34314575,3.04359188e-16 3,0 Z"/>
    <path fill="#3A6291" d="M56.1679688,0.083984375 L56.1679688,15.6293945 C56.1679688,17.2862488 57.5111145,18.6293945 59.1679688,18.6293945 L71.0048828,18.6293945 L56.1679688,0.083984375 Z"/>
    <path fill="#F5A623" d="M29.884253,35 L34.051144,35 L44,58 L38.3149394,58 L36.3445491,53.1271186 L27.461642,53.1271186 L25.5558546,58 L20,58 L29.884253,35 Z M31.982659,42 L29,49 L35,49 L31.982659,42 Z M46,35 L51,35 L51,58 L46,58 L46,35 Z"/>
  </g>
</svg>
