<svg xmlns="http://www.w3.org/2000/svg" width="71" height="93" viewBox="0 0 71 93">
  <g fill="none" fill-rule="evenodd">
    <path fill="#1D2F44" d="M3,0 L55.7339131,0 L71,18.640625 L71,90 C71,91.6568542 69.6568542,93 68,93 L3,93 C1.34314575,93 2.02906125e-16,91.6568542 0,90 L0,3 C-2.02906125e-16,1.34314575 1.34314575,3.04359188e-16 3,0 Z"/>
    <path fill="#3A6291" d="M56.1679688,0.083984375 L56.1679688,15.6293945 C56.1679688,17.2862488 57.5111145,18.6293945 59.1679688,18.6293945 L71.0048828,18.6293945 L56.1679688,0.083984375 Z"/>
    <path fill="#F5A623" d="M28.0026918,31 L33.9057873,31 L48,63 L39.9461642,63 L37.1547779,56.220339 L24.5706595,56.220339 L21.8707941,63 L14,63 L28.0026918,31 Z M31.4739884,41 L27,51 L36,51 L31.4739884,41 Z M51,31 L58,31 L58,63 L51,63 L51,31 Z"/>
  </g>
</svg>
