<svg xmlns="http://www.w3.org/2000/svg" width="71" height="93" viewBox="0 0 71 93">
  <g fill="none" fill-rule="evenodd">
    <path fill="#1D2F44" d="M3,0 L55.7339131,0 L71,18.640625 L71,90 C71,91.6568542 69.6568542,93 68,93 L3,93 C1.34314575,93 2.02906125e-16,91.6568542 0,90 L0,3 C-2.02906125e-16,1.34314575 1.34314575,3.04359188e-16 3,0 Z"/>
    <path fill="#3A6291" d="M56.1679688,0.083984375 L56.1679688,15.6293945 C56.1679688,17.2862488 57.5111145,18.6293945 59.1679688,18.6293945 L71.0048828,18.6293945 L56.1679688,0.083984375 Z"/>
    <path fill="#FD63A5" d="M12,29 L20,29 L20,65 L12,65 L12,29 Z M27,29 L38.8254211,29 C41.6891414,29 44.4096349,29.3220307 46.9869832,29.9661017 C49.5643314,30.6101727 51.8131604,31.6525352 53.7335375,33.0932203 C55.6539147,34.5339055 57.1784017,36.4067681 58.3070444,38.7118644 C59.4356871,41.0169607 60,43.8135429 60,47.1016949 C60,50.0169637 59.4525323,52.5847347 58.3575804,54.8050847 C57.2626285,57.0254348 55.788677,58.889823 53.9356815,60.3983051 C52.082686,61.9067872 49.9433506,63.0508436 47.517611,63.8305085 C45.0918715,64.6101734 42.5482522,65 39.8866769,65 L27,65 L27,29 Z M35,58 L39.1104478,58 C40.9373226,58 42.6373056,57.8166685 44.2104478,57.45 C45.78359,57.0833315 47.1452679,56.4750042 48.2955224,55.625 C49.4457769,54.7749957 50.350743,53.6583403 51.0104478,52.275 C51.6701526,50.8916597 52,49.20001 52,47.2 C52,45.466658 51.6701526,43.9583398 51.0104478,42.675 C50.350743,41.3916602 49.4626921,40.3333375 48.3462687,39.5 C47.2298452,38.6666625 45.918913,38.0416687 44.4134328,37.625 C42.9079527,37.2083313 41.3263764,37 39.6686567,37 L35,37 L35,58 Z"/>
  </g>
</svg>
